<?xml version="1.0" encoding="UTF-8"?>
<svg id="Vrstva_2" data-name="Vrstva 2" xmlns="http://www.w3.org/2000/svg" viewBox="0 0 216.068 198.706">
  <g id="Vrstva_2-2" data-name="Vrstva 2">
    <path d="M15.444,73.177c3.197.023,7.762-2.301,9.362-5.783,1.903-4.14,5.475-5.734,8.161-6.291-1.66,4.232-1.965,6.138-1.593,7.87-.148.404-.44,1.124-1.009,2.354-1.611,3.479-3.902,5.326-7.214,7.747-1.812,1.324-2.938,3.232-3.257,5.517-.545,3.893,1.442,8.073,3.308,10.47,5.108,6.558,12.284,8.395,19.198,4.91,2.334-1.176,5.103-.849,8.815.06l18.833,4.61,5.89,5.449c7.075,6.545,10.721,14.756,10.265,23.122-.406,7.453-1.418,14.646-3.007,21.381-.623,2.638-2.032,3.391-6.017,5.179l-1.116.504c-8.562,3.917-11.463,14.735-9.321,22.931l1.337,2.217,1.174,1.082c2.679,2.477,5.715,5.284,8.889,7.006l7.583,4.112c.772.419,2.309,1.083,4.292,1.082,3.06,0,7.18-1.579,11.185-8.07l-3.813-2.491,4.482.838v-.003s1.757-9.415,1.757-9.415c.749-4.013,1.535-6.781,3.334-9.058,2.76-3.49,5.423-7.073,7.998-10.539,4.786-6.439,9.305-12.522,14.513-18.235l.476-.521c5.395-5.913,10.944-11.994,12.514-20.876.752.149,1.512.28,2.334.387l7.504.976c1.238.161,2.526.198,3.772.235,1.622.047,3.843.111,4.708.556,6.355,3.265,11.909,3.87,17.789,4.512,2.989.326,5.398.856,7.524,1.323,7.124,1.568,11.946,2.21,20.87-4.048.376-.263.759-.521,1.142-.78,2.602-1.753,5.841-3.935,7.099-7.874,1.648-5.159.907-10.351-1.985-13.888-4.77-5.836-10.06-10.776-15.722-14.683-1.105-.763-2.262-1.338-3.282-1.846-1.684-.837-2.732-1.398-3.095-2.113-4.641-9.132-3.698-14.934-1.985-25.466.272-1.674.559-3.439.84-5.323,1.957-13.114-2.76-25.236-12.941-33.257-.641-.505-1.403-1.275-2.21-2.09-2.004-2.023-4.275-4.318-7.301-5.354-5.184-1.776-9.232-2.801-12.74-3.225-10.403-1.256-14.326-4.047-16.921-5.894-3.338-2.374-6.779-4.159-12.178.045l-7.123,5.549-6.703,4.31c-3.904,2.51-5.692,6.348-7.269,9.735-.546,1.17-1.06,2.276-1.631,3.266-.543.942-2.627,2.542-3.872,3.498-.408.313-.793.609-1.138.884-3.554,2.831-3.556,6.845-3.558,9.243,0,.621-.002,1.549-.094,1.884-3.231,5.361-10.774,13.672-14.664,14.261-1.094.165-4.304-.532-5.291-1.242-2.018-2.548-3.411-5.762-4.642-8.604-2.115-4.879-5.017-11.557-11.947-10.166-4.746.956-6.248,3.058-7.851,5.924-.697,1.246-1.565,2.796-3.429,4.964-.724.841-3.473,1.571-4.8,1.066-11.436-4.361-24.157-2.63-33.57,4.478-2.984.323-6.292,1.355-7.748,4.164l-.356,3.287c1.32,4.914,7.787,14.102,15.444,14.145Z" style="fill: #000001;"/>
  </g>
</svg>