<?xml version="1.0" encoding="UTF-8"?>
<svg id="Vrstva_2" data-name="Vrstva 2" xmlns="http://www.w3.org/2000/svg" viewBox="0 0 115.944 169.708">
  <g id="Vrstva_2-2" data-name="Vrstva 2">
    <path d="M114.999,112.397c-.234-8.99-2.171-18.021-6.28-29.28-1.859-5.094-2.711-8.306-3.397-10.886-1.604-6.037-2.545-8.879-9.854-18.699-2.727-3.665-3.464-6.843-4.244-10.209-.714-3.078-1.451-6.261-3.69-9.348l-7.836-10.803c-2.584-3.562-5.916-6.506-9.139-9.353l-.646-.571c-2.047-1.813-4.34-3.077-6.557-4.298-1.519-.837-2.954-1.628-4.112-2.5-4.954-3.728-9.937-5.516-16.154-5.798L30.379.076c-5.623-.255-11.162.133-16.932,1.188l-3.464,3.738-1.557,14.796-.514,21.018-1.451,11.976c-.102.801-1.428,3.057-2.305,4.549-2.677,4.555-6.723,11.438-1.938,16.66.691.753,1.515,1.268,2.312,1.765.23.144.567.354.812.524,2.664,8.006,4.764,15.673,6.984,23.778.706,2.58,1.418,5.178,2.155,7.812,3.01,10.753,7.665,24.6,17.024,36.32,3.226,4.039,9.446,8.936,15.482,10.143,2.307.461,5.317.487,9.129.52,5.793.049,13.003.111,20.246,1.754.589.191,1.922,1.597,2.719,2.437.899.948,1.829,1.928,2.88,2.734l1.908,1.469c7.266,5.61,8.784,6.452,16.68,6.452.95,0,1.992-.012,3.148-.029,1.116-.017,2.36-.036,3.757-.048,2.143-.019,4.318-.998,5.969-2.686,1.629-1.665,2.547-3.832,2.519-5.943l-.319-24.58-.625-24.025Z" style="fill: #000001;"/>
  </g>
</svg>