<?xml version="1.0" encoding="UTF-8"?>
<svg id="Vrstva_2" data-name="Vrstva 2" xmlns="http://www.w3.org/2000/svg" viewBox="0 0 194.945 153.12">
  <g id="Vrstva_2-2" data-name="Vrstva 2">
    <path d="M185.443,46.641c-.295-.077-.509-.15-.659-.209-.015-.329-.007-.784-.001-1.148.044-2.733.123-7.573-5.3-11.402-.174-1.619-.242-3.059-.304-4.374-.319-6.783-1.132-11.198-9.712-15.304l-8.524-4.08c-6.06-2.9-13.807-2.835-19.037-1.805-3.586.706-6.809,3.456-9.399,5.665-.442.377-.862.737-1.255,1.057l-1.677,3.406-.286,9.898,2.151,4.01,10.924,6.804c.896.558,2.679,2.349,3.853,3.84.01.186.008.411-.002.639-.265.051-.539.098-.752.134-1.391.238-2.967.506-4.346,1.469-.88.615-1.593,1.253-2.221,1.816-1.246,1.117-1.607,1.384-2.293,1.448-2.933.273-7.09,2.192-8.968,4.93l-.802,2.526-.216,16.747c-.007.629-1.599,1.902-4.728,3.783-.12.072-.238.143-.355.214-6.512.7-15.518.268-23.201-5.148-2.352-1.658-6.437-8.016-8.403-13.082-.876-2.257-2.108-10.782-3.138-21.718l-.756-8.037c-1.118-11.881-5.061-14.682-11.932-18.611-1.319-.754-2.814-1.608-4.43-2.652l-2.154-.719-25.748-1.831c-3.266-.232-7.524-1.229-12.314-2.882-.38-.131-.753-.265-1.123-.397-3.647-1.307-8.186-2.933-13.778.076C.032,9.523-.546,15.577.208,22.678c.123,1.158.239,2.253.18,3.306-.019.346-.068.715-.113,1.092-.271,2.222-.904,7.423,4.04,9.796l.351.167c.252.12.72.341,1.165.572-.086,1.979.153,3.594.371,5.063.093.625.19,1.269.259,1.972l1.405,14.237.404,17.113.931,9.057c-5.256,6.725-4.638,15.587-4.134,22.824.059.855.118,1.696.166,2.52.577,9.932,6.89,17.703,17.775,21.881.905.348,1.799.698,2.688,1.046,4.398,1.722,8.945,3.503,13.982,4.62.769.17,1.787.446,2.96.761,9.784,2.626,18.23,4.41,22.496-.382,1.358-1.528,1.53-3.42,1.668-4.939.024-.261.04-.513.064-.661,1.122-4.744,2.177-9.941,2.416-15.934.394-.026.631.003.744.027.037.071.089.198.145.399,2.357,8.557,5.071,22.095,5.821,33.053l7.851,2.854c5.613-5.839,8.548-13.513,8.488-22.192-.003-.474.126-1.321.24-2.068.158-1.039.322-2.114.34-3.208l.346-20.726c.052-3.112.575-6.112,1.129-9.289.093-.534.187-1.074.28-1.621l1.533-.13c10.394-.88,27.301-.606,32.001,2.198l10.589,6.316c2.847,1.699,5.417,4.194,8.137,6.835.887.86,1.784,1.731,2.707,2.594l7.669-3.733c-.085-.976-.185-1.959-.284-2.945-.553-5.47-1.075-10.637,1.01-14.595.718-1.362,2.2-2.773,3.769-4.267,2.608-2.484,5.565-5.299,6.742-9.45,1.07-3.774,2.462-5.353,5.961-6.757.675-.271,1.325-.557,1.966-.841,2.537-1.123,4.069-1.799,6.783-1.277,3.998.773,8.806-2.15,9.703-5.9l1.993-8.319-3.29-5.485-6.212-1.619Z" style="fill: #000001;"/>
  </g>
</svg>