<?xml version="1.0" encoding="UTF-8"?>
<svg id="Vrstva_2" data-name="Vrstva 2" xmlns="http://www.w3.org/2000/svg" viewBox="0 0 153.92 245.818">
  <g id="Vrstva_2-2" data-name="Vrstva 2">
    <path d="M125.373,234.008c2.539,1.205,5.166,2.451,9.202,4.9.859.522,1.726,1.115,2.645,1.743,2.91,1.991,6.207,4.247,10.691,5.167l3.613-.675c1.388-.891,2.256-2.409,2.38-4.166.1-1.418-.278-4.29-2.327-6.061l-8.565-7.403-9.031-6.258-6.76-5.523c-5.768-4.713-12.272-10.605-16.772-18.58-5.061-8.967-5.735-12.534-5.647-13.898.189-.036.41-.044.541-.01,2.632.712,4.627,1.634,6.388,2.447,3.84,1.775,8.192,3.783,14.536.403l.348-.179c1.213-.612,2.872-1.45,3.882-3.134.638-1.063,1.499-3.302.092-6.361-1.965-4.267-8.272-9.535-15.819-11.87.195-.175.39-.343.584-.504l8.636-7.108,1.881-.264,2.83-8.211-1.331-1.389c-2.718-2.844-5.53-5.786-8.701-8.238-4.535-3.507-6.674-8.256-9.152-13.755-.399-.885-.799-1.776-1.215-2.67-.958-2.067-1.935-4.092-2.905-6.105-2.768-5.74-5.382-11.162-7.386-17.139-4.869-14.526-22.431-36.606-34.052-51.216-1.591-2.001-3.05-3.836-4.32-5.455l-11.367-14.504C41.63,19.518,25.823,5.445,15.399,0l-5.851,1.028c-3.262,3.559-4.258,7.402-5.059,10.49-.258.994-.5,1.932-.799,2.816l-1.625,4.801-1.187,5.673c-.945,4.666-1.284,8.333-.223,13.274l2.165,10.021c1.12,5.162,2.802,10.073,5.457,15.922l9.497,21.02,14.207,30.364,3.947,9.091,5.764,11.874,10.824,21.818.609,1.236c.942,1.922,1.916,3.909,3.163,5.93,3.564,5.779,9.23,13.213,13.779,18.078,1.066,1.139,2.159,2.201,3.216,3.228,1.69,1.643,3.285,3.194,4.648,4.926l3.501,4.452,6.451,7.588c.444.521.938,1.206,1.461,1.932.885,1.228,1.889,2.62,3.071,3.787,6.742,6.652,15.554,13.509,20.206,17.004,5.794,4.353,9.173,5.957,12.752,7.655Z" style="fill: #000001;"/>
  </g>
</svg>