<?xml version="1.0" encoding="UTF-8"?>
<svg id="Vrstva_2" data-name="Vrstva 2" xmlns="http://www.w3.org/2000/svg" viewBox="0 0 265.153 147.74">
  <g id="Vrstva_2-2" data-name="Vrstva 2">
    <path d="M260.278,91.545c-1.229-.873-2.913-2.07-5.152-3.96-1.997-1.685-4.13-2.908-6.193-4.091-3.697-2.12-6.633-3.803-8.368-7.629-.021-.164-.028-.337-.041-.509-.113-1.443-.35-4.445-3.029-6.321-1.563-1.095-3.624-1.882-5.804-2.216l-14.201-2.177c-10.515-1.612-20.256-3.728-29.215-5.773-5.698-1.302-11.844-1.803-18.274-1.487-8.241.405-12.917-.634-17.438-1.64-4.025-.896-8.197-1.824-14.114-1.589-2.206.086-4.227.301-6.181.508l-1.64.171c-5.268.527-10.669-.261-16.388-1.097l-2.327-.337c-6.834-.972-13.902-1.976-20.937-3.793-1.748-.452-4.448-1.391-6.586-3.211l2.43-1.992c.177-.137.403-.271.639-.421,1.689-1.076,5.645-3.596,4.994-8.351-1.012-7.402-9.682-8.113-18.86-8.866-6.161-.506-13.828-1.135-16.685-3.655-7.51-6.625-16.055-13.223-27.622-16.613l-10.659-3.125L13.348.643c-2.526-1.305-6.211-.465-7.934,1.104-1.768,1.609-2.552,4.558-2.287,6.481l.704,5.112,1.545,2.981c1.598,1.493,3.141,2.59,4.641,3.406-2.467-.468-6.067.239-8.016,2.313C-.302,24.49-.178,28.831.243,30.55c1.13,4.617,4.667,8.219,10.514,10.706,6.518,2.772,9.142,5.49,12.463,8.931,2.289,2.37,4.883,5.057,8.929,8.028,1.514,1.111,1.829,1.682,2.594,4.697,1.083,4.268.29,7.002-2.355,8.128-2.037.867-4.67,1.646-7.216,2.4-.814.241-1.619.479-2.399.719-2.513.768-4.067-.245-6.602-2.101-2.062-1.51-6.35-4.652-10.715-1.458-1.168.857-1.926,2.167-2.134,3.691-.199,1.462.038,3.596,1.302,5.201l11.736,14.897c1.722,2.188,4.774,4.28,9.54,1.821.24-.124.57-.294.644-.304,5.177,1.274,10.296,2.347,15.246,3.385,3.464.726,7.047,1.477,10.621,2.291l14.71,3.35c6.788,1.546,13.167,1.017,18.128.288.087.075.174.151.253.219.34.296.682.59,1.033.861l15.63,12.092c1.569,1.214,2.975,2.6,4.463,4.068,1.976,1.949,4.02,3.964,6.661,5.812,2.58,1.805,4.532,3.412,6.42,4.966,4.898,4.031,9.127,7.513,19.613,10.281l11.589,3.059c1.8.475,5.043,1.162,8.733,1.162,3.428,0,7.243-.593,10.647-2.499,6.146-3.44,7.188-12.932,5.206-17.954-.111-.281-.232-.549-.357-.807,7.33-3.025,21.275-3.665,27.717-3.961l24.35-1.118c7.205-.331,13.834-1.475,20.865-3.599,8.494-2.568,14.225-8.074,16.574-15.924,1.784-5.96-1.484-8.282-4.367-10.331Z" style="fill: #000001;"/>
  </g>
</svg>