<?xml version="1.0" encoding="UTF-8"?>
<svg id="Vrstva_2" data-name="Vrstva 2" xmlns="http://www.w3.org/2000/svg" viewBox="0 0 172.509 326.308">
  <g id="Vrstva_2-2" data-name="Vrstva 2">
    <path d="M171.38,301.264c-.473-3.354-1.411-6.324-2.951-9.347l-2.412-4.732-3.126-5.887-2.99-5.525c-1.476-2.727-4.676-8.136-7.305-11.108-.363-.411-.739-1.065-1.137-1.759-.406-.709-.867-1.512-1.446-2.28l-3.205-4.254c-2.74-3.638-6.19-6.688-9.234-9.378-.725-.641-1.537-1.111-2.253-1.526-.222-.128-.518-.3-.741-.441-.004-.01-.007-.021-.011-.031-.321-.91-.99-2.803-3.06-3.666-1.188-.495-2.324-.411-3.238-.342-.058.004-.116.009-.173.014-2.026-.515-5.44-1.009-8.614.274-9.649,3.897-9.613,13.365-9.586,20.278.005,1.463.011,2.856-.063,4.116l-.435-2.936c-.252-1.702-.914-3.133-1.445-4.283-.197-.426-.397-.85-.559-1.284-.649-1.744-1.097-3.678-1.571-5.727-.134-.579-.268-1.154-.405-1.723l-2.976-3.094c-1.864-.527-2.714-1.819-4.21-4.641-1.223-2.307-1.468-4.121-1.734-7.712l-.793-10.695c.052-.214.156-.56.229-.806.385-1.286.821-2.744.491-4.329l-.034-.151c-.079-.319-.147-.608-.206-.87.497-.361.948-.795,1.344-1.299,3.344-4.25,1.673-12.119-1.865-22.628-.219-.649-.386-1.131-.438-1.313l-3.929-17.486c-.665-2.96-1.162-5.865-1.688-8.94-.189-1.106-.378-2.215-.576-3.328l-1.863-10.481c-.201-1.129-.393-2.399-.599-3.756-1.083-7.135-2.431-16.015-6.877-21.766l-1.317.601c-.21-.788-.469-1.578-.796-2.358-1.52-3.622-2.171-7.326-2.808-11.443l-.958-6.193c-.718-4.64-1.083-9.087-1.083-13.219,0-.427.038-.898.077-1.396.157-1.973.372-4.675-1.552-7.486-.182-.265-.243-.354.119-2.075.106-.506.214-1.024.3-1.56.307-1.902.617-4.762.753-6.486l-.255-1.821c-.592-1.588-1.979-5.307-2.249-7.539-.291-2.396-2.328-3.818-3.984-4.307-1.482-.439-2.977-.208-4.122.591-1.579-2.858-1.711-4.018-1.15-8.785.646-.918,1.837-2.877.762-5.189-.597-1.282-1.269-2.889-1.98-4.591-1.125-2.691-2.29-5.475-3.448-7.685l-9.987-19.072c-.767-1.465-2.125-2.427-3.323-3.275-.262-.185-.646-.458-.808-.591-.037-.041-.075-.081-.113-.12l.076-.597-4.737-8.631c-.885-1.614-2.788-2.711-4.181-3.047-1.357-.329-2.708-.103-3.801.638-2.099,1.424-2.68,4.335-2.553,5.839l.658,7.765c.776,9.155,3.216,17.262,5.576,25.103l2.699,8.965,1.94,6.938c.593,2.121,1.216,3.97,2.328,6.104l.154-.029c1.019,5.943,1.336,12.802.802,17.919l-1.038,9.956-.483,10.939-.397,25.669c-.049,3.223-.878,6.678-1.913,10.055-2.202.529-4.9,1.846-6.595,5.202-.197.39-.406.787-.618,1.19-.747,1.418-1.593,3.025-2.189,4.79-2.579,7.633-4.429,15.389-6.218,22.89-.434,1.817-.868,3.639-1.314,5.466l-.07.288c-1.225,5.012-2.381,9.747-2.549,15.229-.095,3.087-.584,6.083-1.059,8.98-.559,3.414-1.136,6.945-1.075,10.63.003.168.008.334.014.498-.971-.342-2.102-.446-3.398-.102-3.191.852-5.52,3.975-6.169,6.619-.363,1.477-.746,2.92-1.125,4.353-.803,3.031-1.634,6.165-2.236,9.453C.115,243.443-.372,247.863.25,260.607c.6,12.28,2.976,17.751,7.948,18.292,7.659.832,10.305-13.504,10.331-13.649l1.654-9.234,2.579-10.623c.169-.695.469-1.33.903-2.042.905.628,1.91.854,2.803.811l4.831,4.603,2.935,2.574,3.243,1.03c3.368-.353,5.718-2.431,7.607-4.132.505.024,1.064.089,1.437.181,1.808,2.109,3.204,5.253,4.805,8.861,1.435,3.232,3.061,6.896,5.333,10.548,2.93,4.708,10.656,5.633,15.001,5.766l6.078.186c.244.012.717.13,1.231.279,1.371,4.76,1.842,9.874,1.399,15.23-.771,9.343-.299,15.548.84,23.729l5.763,3.373,3.144-1.232c2.145-.839,3.134-2.821,3.826-4.433.122-.026.239-.051.338-.072.328-.07.649-.139.946-.212,3.042-.75,4.378-3.672,5.177-5.417.097-.211.188-.413.278-.595,1.16-2.363,3.101-6.319,1.185-10.858-.244-.578-.581-1.119-1.003-1.637.559-.308,1.09-.686,1.552-1.167,1.112-1.159,1.511-2.497,1.576-3.782.187-.107.369-.226.547-.357,1.071-.789,1.896-2.057,2.53-3.542.498.792,1.212,1.54,2.233,2.169,1.509.931,5.351,1.846,7.816-.134l1.518-2.537.454-2.435c1.248.185,2.666.06,3.926-.833l1.868-1.325c.158.295.317.622.438.871.43.883.918,1.884,1.659,2.859,1.008,1.325,2.213,2.354,3.276,3.263,1.127.962,2.1,1.793,2.549,2.681l1.64,1.746,2.503,1.47,1.207,2.622c1.113,2.418,2.468,3.806,3.847,4.584l-1.771,6.03c1.613,2.43,4.002,3.864,6.344,5.052l.966-.274c-.68.663-1.188,1.522-1.459,2.529-1.204,4.466,2.887,11.627,6.937,13.918,1.148.649,2.338.969,3.489.969,1.658,0,3.233-.664,4.481-1.96l6.479-6.728c1.745-1.812,3.484-4.544,4.361-6.316l.242-.597c.895-2.812.231-5.503-.302-7.666-.164-.667-.319-1.296-.387-1.776ZM41.278,16.439c-.005-.007-.009-.013-.014-.02l.24-1.881c.162.725.023,1.369-.226,1.901Z" style="fill: #000001;"/>
  </g>
</svg>