<?xml version="1.0" encoding="UTF-8"?>
<svg id="Vrstva_2" data-name="Vrstva 2" xmlns="http://www.w3.org/2000/svg" viewBox="0 0 103.242 277.308">
  <g id="Vrstva_2-2" data-name="Vrstva 2">
    <path d="M102.973,167.077l-.479-1.768-6.935-13.265-2.742-9.364c-.547-1.867-9.455-23.481-10.985-27.176-.022-.19-.052-.387-.087-.59-.113-.639-.278-1.534-.47-2.559-.378-2.021-.863-4.558-1.259-6.628-.362-1.896-.648-3.39-.694-3.66l-.766-4.931c-.927-5.975-3.955-14.139-6.884-22.035-1.403-3.784-2.729-7.359-3.723-10.428-.457-1.414-.837-2.875-1.238-4.421-.753-2.899-1.531-5.897-2.906-8.817-1.318-2.796-2.112-5.475-2.742-9.244-.319-1.913-.653-3.401-.922-4.598-.543-2.423-.84-3.745-.59-6.499,2.517-1.816,3.354-2.823,4.544-4.364.656-.851,1.474-1.909,3.265-3.739,3.122-3.188,4.364-4.122,5.106-4.68,1.97-1.481,2.224-1.886,6.472-8.649l1.457-2.319c1.5-2.38.33-5.208-1.667-6.566-1.971-1.34-4.599-.906-5.978.978l-.53.721c-.575.782-1.259,1.388-2.328,2.312l-6.97,6.03c-.705.61-1.677,1.073-2.907,1.66-2.986,1.423-7.075,3.373-10.723,9.259l-.237.381c-1.417,2.268-3.558,5.695-2.375,10.478.936,3.782,2.023,7.737,3.246,11.807-1.35-.188-2.922-.068-4.231.716-2.472,1.478-2.745,4.29-2.892,5.801-.223,2.301-.741,5.623-1.322,8.65-.005-.005-.01-.009-.015-.014-1.321-1.264-2.967-2.836-5.296-3.599l-4.158-1.362-.999-.199c-1.955-.151-6.637.375-8.041,8.45l-1.17,6.713c-.965,5.546-1.509,10.597,1.629,16.249.372.671.656,1.427.859,2.151l-2.692-.949c-2.031-.716-4.263-.415-6.114.83-1.88,1.262-3.066,3.316-3.174,5.497-.167,3.414.052,5.83.211,7.594.299,3.316.361,4.006-3.125,8.527l-.104.141c-2.185,3.09-1.746,7.17-1.425,10.15.049.458.097.892.127,1.287.461,5.91,3.206,9.907,5.547,12.729,2.974,3.586,5.274,7.663,7.198,11.201.569,1.049.66,1.725.511,3.803l-.476,6.622h0c-.241,3.376-.814,6.801-1.804,10.779l-2.695,10.837-1.644,5.498c-.521,1.738-.832,3.233-1.165,5.081-1.464,8.088-2.077,9.28-2.926,10.929-.77,1.495-1.728,3.355-3.188,8.28-.923,3.113-1.21,3.649-1.73,4.622-.515.959-1.219,2.273-2.483,5.483-1.207,3.065-2.469,6.84-2.672,11.594l-.375,8.768c-.38,8.881.406,16.734,2.406,24.01,1.549,5.637,6.299,10.542,10.319,12.902l3.891,2.284c.96.563,2.071.852,3.204.852.607,0,1.221-.083,1.821-.251,1.667-.468,3.072-1.572,3.809-2.963.129-.134.559-.362,1.277-.678.51-.224.924-.513,1.263-.81l.159.011,3.342-1.262,3.475-3.54c2.525.399,3.923-1.195,4.387-1.857,1.562-.111,3.118-.562,4.349-1.316.868-.532,1.58-1.205,2.11-1.98l.286.273c1.547-.555,2.656-1.293,3.548-1.885.267-.177.535-.357.826-.534.915-.557,1.847-1.075,2.772-1.591,3.319-1.85,6.751-3.762,9.547-7.164l-1.17-2.721c.133-.131.264-.26.394-.388,1.197-1.185,2.232-2.207,4.098-3.251.296-.166.597-.318.896-.47,1.308-.667,2.935-1.496,4.281-3.091,1.98-2.347,4.174-4.846,6.789-7.212l.1-.087c2.885-2.503,2.312-4.884,1.708-6.091-.24-.479-.544-.894-.929-1.418-.511-.698-.914-1.294-1.208-1.787.648-.111,1.368-.328,2.092-.738.644,1.46,1.85,3.216,4.406,3.996,2.469.752,4.823-.254,7.014-2.99l1.827-1.165,1.289-1.284,2.425-3.767c.702-1.091,1.068-2.476,1.475-4.173.065-.277.124-.526.177-.717l3.008-10.668c.714-2.502,1.357-5.277,1.233-8.611-.019-.513.06-1.217.144-1.963.087-.782.177-1.591.191-2.444.134-7.574.232-15.639-.149-23.644Z" style="fill: #000001;"/>
  </g>
</svg>