<?xml version="1.0" encoding="UTF-8"?>
<svg id="Vrstva_2" data-name="Vrstva 2" xmlns="http://www.w3.org/2000/svg" viewBox="0 0 138.096 229.584">
  <g id="Vrstva_2-2" data-name="Vrstva 2">
    <path d="M136.116,110.386c.197-.548.39-1.146.531-1.797.969-4.485.702-9.704-.751-14.697l-1.821-6.258-.078-.29c-.232-.901-.617-1.963-1.437-2.863-.085-2.296-.923-4.322-1.598-5.954-.193-.466-.389-.936-.564-1.411l-2.141-5.807c-1.049-2.846-1.755-5.758-2.501-8.841-.178-.735-.357-1.473-.541-2.214l-.849-1.682-.79-.956c-.807-4.542-4.338-11.952-10.525-22.078-1.406-2.301-4.459-4.28-5.36-4.831-.1-.061-.177-.111-.237-.151-.061-.209-.133-.494-.174-.657-.763-3.014-3.089-4.848-4.788-6.187-.614-.484-1.248-.984-1.553-1.344-1.67-1.966-3.315-3.363-5.501-4.669l-7.414-4.432c-5.318-3.179-9.737-6.376-13.905-10.06-.473-.418-.97-.734-1.451-1.04-.229-.146-.614-.391-.716-.479-2.439-2.396-6.584-2.016-9.185-.262l.605,7.39,3.225,1.477c.329.18,1.165.84,1.405,1.103l5.881,6.981c1.171,1.391,2.445,2.542,3.678,3.655,1.199,1.083,2.331,2.106,3.121,3.15,4.396,5.813,8.765,16.707,11.655,23.915l.115.286c1.146,2.859,1.025,5.954.907,8.946-.117,2.962-.227,5.761.825,8.392.293.734.58,1.305.81,1.763.124.247.293.585.318.667.008.073.051.798-.971,3.639-.127.354-.263.75-.409,1.178-.705,2.059-2.578,7.528-4.572,7.568-1.176.023-2.209.057-3.131.087-5.56.18-5.776.188-10.171-2.885l-9.194-6.428c-.366-.256-.843-.659-1.348-1.086-.837-.708-1.786-1.511-2.803-2.118-6.805-4.06-14.719-6.166-23.523-6.259l-30.19-.32c-3.106,0-5.741,1.724-7.046,4.7-1.817,4.145-.921,10.628,1.878,13.603l1.671,1.091c5.471,1.947,10.357,2.258,15.035,2.278-1.641,1.595-2.512,3.049-3.116,4.058-.047.078-.1.166-.152.252l-8.714.131-3.972,2.914-.486,1.468-4.097,2.017.248,7.742c2.848,1.183,5.396,1.326,7.442,1.441,3.002.169,6.227.436,9.955.823.174,3.296.647,6.271,1.287,9.489.784,3.951.785,5.036.786,5.444.001,1.601.387,2.35,1.155,3.843.416.808,1.09,2.118,2.179,4.369.183.437.155,1.885.139,2.751-.018.899-.035,1.828.047,2.765.372,4.238-1.129,6.34-3.4,9.523-2.177,3.048-4.885,6.842-5.503,12.882-.606,5.932-.569,11.281.111,15.899l.81,5.502c.422,2.867.821,5.135,1.258,7.138l1.457,6.688.928,6.13c.75,4.955,3.988,12.347,7.07,16.143l3.263,4.018c3.866,4.762,7.836,9.259,13.881,11.957l4.85-.991c3.671-3.958,8.274-6.461,14.071-7.654,5.541-1.139,10.669-2.605,15.385-4.02,2.553-.766,4.748-1.101,6.869-1.425,4.393-.671,8.936-1.364,15.069-5.623,1.948-1.352,2.72-3.381,3.284-4.862.181-.477.387-1.017.541-1.265,2.235-3.613,3.413-4.059,4.776-4.575,2.903-1.1,5.513-2.542,8.055-9.064v-.398c1.341-1.049,2.34-2.942,2.175-6.302-.004-.093-.01-.186-.015-.275.247-.488.53-1.015.825-1.563,1.204-2.236,2.567-4.771,3.148-7.682q.41-2.059,1.052-2.377c3.46-1.719,3.591-5.346,3.479-7.22l1.643-1.637.058-1.912,1.055-2.236.357-2.461-.646-4.196c-.02-.126-.027-.216-.029-.273.087-.106.302-.338.799-.74,2.118-1.713,2.474-4.401,2.644-6.343l2.078-1.008c.244-.773.529-1.568.818-2.38,1.021-2.861,2.178-6.104,2.212-9.607l.106-10.993.321-6.231c.081-1.562-.671-2.996-1.975-3.886ZM125.537,165.553c-.228.24-.483.45-.759.626l1.228-1.224c-.126.198-.28.4-.468.598ZM130.917,145.371c-.306.171-.632.299-.968.384l1.457-.707c-.147.114-.31.223-.488.323ZM133.647,117.87l.024-.465,1.349-.029c-.445.266-.915.415-1.373.494Z" style="fill: #000001;"/>
  </g>
</svg>