<?xml version="1.0" encoding="UTF-8"?>
<svg id="Vrstva_2" xmlns="http://www.w3.org/2000/svg" version="1.1" viewBox="0 0 4738 636">
  <!-- Generator: Adobe Illustrator 30.3.0, SVG Export Plug-In . SVG Version: 2.1.3 Build 182)  -->
  <defs>
    <style>
      .st0 {
        fill: #fff;
      }
    </style>
  </defs>
  <path class="st0" d="M3532.1,416l-30.9,76.7,30.9-76.7c2.5,3.3,5.4,6.6,8.7,9.9l49.5,55.7-17.3,44.5c-3.3,7.4-7.8,14-13.6,19.8l-75.5,76.7c-8.3,7.4-17.7,11.1-28.5,11.1s-20.2-3.7-28.5-11.1c-7.4-8.3-11.1-17.7-11.1-28.5s3.7-20.2,11.1-28.5l74.2-73,30.9-76.7ZM3572.9,246.6c-.8.8-1.7,1.2-2.5,1.2s-1.2.4-1.2,1.2l-9.9,3.7c-21.5,9.9-35.9,25.6-43.3,47l-3.7,9.9c-3.3,10.7-9.9,18.1-19.8,22.3-9.1,4.9-19,5.8-29.7,2.5-10.7-3.3-18.6-9.9-23.5-19.8-4.1-9.1-4.5-19-1.2-29.7l2.5-9.9c15.7-43.7,44.5-75.5,86.6-95.2l9.9-3.7c25.6-11.5,52.8-17.3,81.6-17.3s53.2,7.4,75.5,22.3c22.3,15.7,39.2,36.3,50.7,61.8l18.6,45.8,26,12.4c9.9,5.8,16.5,13.6,19.8,23.5,3.3,9.9,2.9,19.8-1.2,29.7-5.8,9.9-13.6,16.5-23.5,19.8-9.9,3.3-19.8,2.9-29.7-1.2l-33.4-17.3c-13.2-6.6-22.7-16.5-28.5-29.7l-11.1-28.5-24.7,80.4,61.8,66.8c6.6,7.4,11.1,16.1,13.6,26l28.5,113.8c2.5,10.7.8,20.6-4.9,29.7-4.9,9.1-12.8,15.2-23.5,18.6-11.6,2.5-21.9.8-30.9-4.9-8.3-4.9-14-12.8-17.3-23.5l-27.2-108.9-87.8-96.5c-18.1-21.4-23.9-45.8-17.3-73l19.8-79.2h1.2ZM3643.4,7.8c19.8-9.9,39.6-9.9,59.4,0,19,12.4,28.9,29.7,29.7,52-.8,22.3-10.7,39.6-29.7,52-19.8,9.9-39.6,9.9-59.4,0-19-12.4-28.9-29.7-29.7-52,.8-22.3,10.7-39.6,29.7-52Z"/>
  <path class="st0" d="M79.5,160.4h65.6c17.3,0,33.8,3.7,49.5,11.1l162,74.2c16.5-28,40.4-49.1,71.7-63.1l9.9-4.9c25.6-11.5,52.8-17.3,81.6-17.3s53.2,7.8,75.5,23.5c22.3,14.8,39.2,35.1,50.7,60.6l18.6,45.8,26,12.4c10.7,5.8,17.7,13.6,21,23.5,3.3,9.9,2.5,19.8-2.5,29.7-5.8,9.9-13.6,16.5-23.5,19.8-9.9,3.3-19.8,2.9-29.7-1.2l-33.4-17.3c-13.2-6.6-22.7-16.5-28.5-29.7l-11.1-28.5-24.7,80.4,61.8,66.8c6.6,7.4,11.1,16.1,13.6,26l28.5,113.8c2.5,10.7,1.2,20.6-3.7,29.7-5.8,9.1-14,15.2-24.7,18.6-10.7,2.5-20.6.8-29.7-4.9-9.1-4.9-15.3-12.8-18.6-23.5l-27.2-108.9-87.8-96.5c-18.1-21.4-23.9-45.8-17.3-73l21-79.2c-.8.8-1.7,1.2-2.5,1.2h-1.2l-9.9,4.9c-21.5,9.9-35.9,25.6-43.3,47l-3.7,9.9v1.2c-1.7,4.9-4.5,9.5-8.7,13.6-3.3,3.3-7,6.2-11.1,8.7-10.7,4.9-21.5,4.9-32.2,0h-2.5l-143.5-66.8,70.5,319.1c2.5,10.7.8,20.6-4.9,29.7-5.8,9.1-14,14.8-24.7,17.3-10.7,2.5-20.6.8-29.7-4.9-9.1-5.8-14.8-14-17.3-24.7l-37.1-167h-19.8l26,152.1c.8,10.7-1.7,20.6-7.4,29.7-5.8,8.2-14.4,13.6-26,16.1-10.7.8-20.6-1.7-29.7-7.4-8.3-5.8-13.6-14.4-16.1-26l-29.7-178.1c-7.4,9.1-17.3,13.6-29.7,13.6s-21-3.7-28.5-11.1S.4,409.5.4,397.9v-158.3c.8-22.3,8.7-40.8,23.5-55.7,14.8-14.8,33.4-22.7,55.7-23.5ZM99.3,120.9c-22.3-.8-39.6-10.7-52-29.7-9.9-19.8-9.9-39.6,0-59.4C59.7,12.8,77.1,2.9,99.3,2.1c22.3.8,39.6,10.7,52,29.7,9.9,19.8,9.9,39.6,0,59.4-12.4,19-29.7,28.9-52,29.7ZM433.3,417.7c2.5,3.3,5.4,6.6,8.7,9.9l49.5,55.7-17.3,44.5c-3.3,7.4-7.8,14-13.6,19.8l-75.5,76.7c-8.3,7.4-17.7,11.1-28.5,11.1s-20.2-3.7-28.5-11.1c-7.4-8.3-11.1-17.7-11.1-28.5s3.7-20.2,11.1-28.4l74.2-73,30.9-76.7-30.9,76.7,30.9-76.7ZM574.3,120.9c-22.3-.8-39.6-10.7-52-29.7-9.9-19.8-9.9-39.6,0-59.4,12.4-19,29.7-28.9,52-29.7,22.3.8,39.6,10.7,52,29.7,9.9,19.8,9.9,39.6,0,59.4-12.4,19-29.7,28.9-52,29.7Z"/>
  <path class="st0" d="M1079.1,381.9v-80.4,80.4l63.1,63.1c9.1,9.1,14.4,19.8,16.1,32.2l19.8,112.6c.8,10.7-1.7,20.6-7.4,29.7-5.8,8.2-14.4,13.6-26,16.1-10.7.8-20.6-1.7-29.7-7.4-8.3-5.8-13.6-14.4-16.1-26l-17.3-106.4-97.7-97.7c-15.7-15.7-23.5-34.2-23.5-55.7v-108.9c.8-20.6,7.8-37.9,21-52,14-13.2,31.3-20.2,52-21,31.3.8,56.1,14,74.2,39.6l52,79.2h56.9l-7.4-32.2c-3.3-18.1,3.7-30.1,21-35.9,18.1-3.3,30.1,3.7,35.9,21l61.8,246.2c22.3,3.3,40,13.6,53.2,30.9l165.8-40.8c18.1-3.3,30.1,3.7,35.9,21,3.3,18.1-3.7,30.1-21,35.9l-167,42.1c-2.5,19.8-11.1,35.9-26,48.2-14,12.4-31.3,19-52,19.8-22.3-.8-40.8-8.7-55.7-23.5s-22.7-33.4-23.5-55.7c.8-27.2,11.5-48.6,32.2-64.3l-33.4-133.6h-86.6c-21.5-.8-37.9-9.5-49.5-26l-21-30.9v80.4ZM960.3,431.3v164.5-164.5l79.2,79.2v85.3c0,11.5-3.7,21-11.1,28.5-7.4,7.4-16.9,11.1-28.5,11.1s-21-3.7-28.5-11.1-11.1-16.9-11.1-28.5v-164.5ZM1029.6,9.5c19.8-9.9,39.6-9.9,59.4,0,19,12.4,28.9,29.7,29.7,52-.8,22.3-10.7,39.6-29.7,52-19.8,9.9-39.6,9.9-59.4,0-19-12.4-28.9-29.7-29.7-52,.8-22.3,10.7-39.6,29.7-52ZM1336.4,556.3c-.8-12.4-7.4-19-19.8-19.8-12.4.8-19,7.4-19.8,19.8.8,12.4,7.4,19,19.8,19.8,12.4-.8,19-7.4,19.8-19.8ZM1372.3,463.5c-9.1-5.8-14.8-14-17.3-24.7l-28.5-113.8c-2.5-10.7-1.2-20.6,3.7-29.7,5.8-9.1,14-14.8,24.7-17.3l113.8-28.5c10.7-2.5,20.6-1.2,29.7,3.7,9.1,5.8,14.8,14,17.3,24.7l28.5,113.8c2.5,10.7,1.2,20.6-3.7,29.7-5.8,9.1-14,14.8-24.7,17.3l-113.8,28.4c-10.7,2.5-20.6,1.2-29.7-3.7Z"/>
  <path class="st0" d="M1889.9,381.9l63.1,63.1c9.1,9.1,14.4,19.8,16.1,32.2l19.8,112.6c.8,10.7-1.7,20.6-7.4,29.7-5.8,8.2-14.4,13.6-26,16.1-10.7.8-20.6-1.7-29.7-7.4-8.3-5.8-13.6-14.4-16.1-26l-17.3-106.4-97.7-97.7c-15.7-15.7-23.5-34.2-23.5-55.7v-108.9c.8-20.6,7.8-37.9,21-52,14-13.2,31.3-20.2,52-21,31.3.8,56.1,14,74.2,39.6l52,79.2h38.3v-118.7c0-11.5,3.7-21,11.1-28.5s16.9-11.1,28.5-11.1h158.3c11.5,0,21,3.7,28.5,11.1s11.1,16.9,11.1,28.5v158.3c0,11.6-3.7,21-11.1,28.5s-16.9,11.1-28.5,11.1h-246.2c-21.5-.8-37.9-9.5-49.5-26l-21-30.9v80.4-80.4,80.4ZM1771.2,431.3l79.2,79.2v85.3c0,11.5-3.7,21-11.1,28.5-7.4,7.4-16.9,11.1-28.5,11.1s-21-3.7-28.5-11.1-11.1-16.9-11.1-28.5v-164.5,164.5-164.5ZM1870.1,120.9c-22.3-.8-39.6-10.7-52-29.7-9.9-19.8-9.9-39.6,0-59.4,12.4-19,29.7-28.9,52-29.7,22.3.8,39.6,10.7,52,29.7,9.9,19.8,9.9,39.6,0,59.4-12.4,19-29.7,28.9-52,29.7Z"/>
  <path class="st0" d="M4173.6,594.2c0,11.5-3.7,21-11.1,28.5s-16.9,11.1-28.5,11.1-21-3.7-28.5-11.1-11.1-16.9-11.1-28.5v-275.8l-35.9,59.4c-5.8,9.1-13.6,14.8-23.5,17.3-10.7,2.5-20.6,1.2-29.7-3.7-9.9-6.6-16.1-14.8-18.6-24.7-2.5-10.7-.8-20.6,4.9-29.7l71.7-120c10.7-18.1,25.1-32.6,43.3-43.3,18.1-9.9,37.5-14.8,58.1-14.8h176.9V59.8c.8-16.5,6.6-30.5,17.3-42.1,11.5-10.7,25.6-16.5,42.1-17.3h277.1c16.5.8,30.5,6.6,42.1,17.3,10.7,11.6,16.5,25.6,17.3,42.1v277.1c-.8,16.5-6.6,30.5-17.3,42.1-11.6,10.7-25.6,16.5-42.1,17.3h-277.1c-16.5-.8-30.5-6.6-42.1-17.3-10.7-11.5-16.5-25.6-17.3-42.1v-59.4h79.2v39.6h237.5V79.6h-237.5v79.2h19.8c11.5,0,21,3.7,28.5,11.1s11.1,16.9,11.1,28.4-3.7,21-11.1,28.5-16.9,11.1-28.5,11.1h-168.2v356.2c0,11.5-3.7,21-11.1,28.5s-16.9,11.1-28.5,11.1-21-3.7-28.5-11.1-11.1-16.9-11.1-28.5v-158.3h-19.8v158.3-158.3,158.3ZM4183.5,119.2c-22.3-.8-39.6-10.7-52-29.7-9.9-19.8-9.9-39.6,0-59.4,12.4-19,29.7-28.9,52-29.7,22.3.8,39.6,10.7,52,29.7,9.9,19.8,9.9,39.6,0,59.4-12.4,19-29.7,28.9-52,29.7Z"/>
  <path class="st0" d="M2504.2,432.1l-59.4,147.2,59.4-147.2,60.6,60.6-45.8,116.3c-4.9,9.9-12,16.9-21,21-9.9,4.1-20.2,4.5-30.9,1.2-9.9-4.9-16.9-12-21-21-4.1-9.9-4.5-20.2-1.2-30.9l59.4-147.2ZM2620.4,380.2v-80.4,80.4l63.1,63.1c9.1,9.1,14.4,19.8,16.1,32.2l19.8,112.6c.8,10.7-1.7,20.6-7.4,29.7-5.8,8.2-14.4,13.6-26,16.1-10.7.8-20.6-1.7-29.7-7.4-8.3-5.8-13.6-14.4-16.1-26l-17.3-106.4-97.7-97.7c-15.7-15.7-23.5-34.2-23.5-55.7v-108.9c.8-20.6,7.8-37.9,21-52,14-13.2,31.3-20.2,52-21,31.3.8,56.1,14,74.2,39.6l58.1,87.8,12.4,6.2v-94c0-11.5,3.7-21,11.1-28.4s16.9-11.1,28.5-11.1h158.3c11.5,0,21,3.7,28.5,11.1s11.1,16.9,11.1,28.4v94l12.4-6.2,59.4-87.8c17.3-25.6,41.6-38.8,73-39.6,20.6.8,37.9,7.8,52,21,13.2,14,20.2,31.3,21,52v108.9c0,21.5-7.8,40-23.5,55.7l-97.7,97.7-17.3,106.4c-2.5,11.5-7.8,20.2-16.1,26-9.1,5.8-19,8.2-29.7,7.4-11.6-2.5-20.2-7.8-26-16.1-5.8-9.1-7.8-19-6.2-29.7l18.6-112.6c1.6-12.4,7-23.1,16.1-32.2l63.1-63.1v-80.4l-23.5,34.6c-5.8,9.1-13.2,15.7-22.3,19.8l-74.2,37.1c-3.3,1.7-6.6,2.9-9.9,3.7-3.3.8-6.2,1.2-8.7,1.2h-162c-1.7,0-3.3-.4-4.9-1.2-3.3-.8-6.6-2-9.9-3.7l-73-37.1c-9.9-4.1-17.7-10.7-23.5-19.8l-23.5-34.6v80.4ZM2570.9,7.8c19.8-9.9,39.6-9.9,59.4,0,19,12.4,28.9,29.7,29.7,52-.8,22.3-10.7,39.6-29.7,52-19.8,9.9-39.6,9.9-59.4,0-19-12.4-28.9-29.7-29.7-52,.8-22.3,10.7-39.6,29.7-52ZM3127.6,30.1c9.9,19.8,9.9,39.6,0,59.4-12.4,19-29.7,28.9-52,29.7-22.3-.8-39.6-10.7-52-29.7-9.9-19.8-9.9-39.6,0-59.4,12.4-19,29.7-28.9,52-29.7,22.3.8,39.6,10.7,52,29.7ZM3231.5,579.3l-59.4-147.2,59.4,147.2c3.3,10.7,2.9,21-1.2,30.9-4.1,9.1-11.1,16.1-21,21-10.7,3.3-21,2.9-30.9-1.2-9.1-4.1-16.1-11.1-21-21l-45.8-116.3,60.6-60.6,59.4,147.2Z"/>
</svg>